<?xml version="1.0"?>
<svg xmlns="http://www.w3.org/2000/svg" viewBox="0 0 64 64" width="512" height="512"><g id="hand-card-coin"><path d="M54,32a3,3,0,0,0,3-3V13a3,3,0,0,0-3-3H38.262a3.105,3.105,0,0,0-.383-.377.894.894,0,0,0-.125-.086l-9.25-5.4a.973.973,0,0,0-.325-.12l-11-2a.986.986,0,0,0-.375,0L8,3.78V3A1,1,0,0,0,7,2H3A1,1,0,0,0,2,3V19a1,1,0,0,0,1,1H7a1,1,0,0,0,1-1V16.618L12.553,18.9A1,1,0,0,0,13,19h6a1,1,0,0,0,.267-.036L21,18.482V29a3,3,0,0,0,3,3ZM23,17.93l3.719-1.037a.952.952,0,0,0,.245-.106A4.057,4.057,0,0,0,27.909,16H55v2H23ZM55,13v1H28.912A4.177,4.177,0,0,0,29,13.19,4.1,4.1,0,0,0,28.8,12H54A1,1,0,0,1,55,13ZM6,18H4V4H6Zm12.864-1H13.236L8,14.382V5.82l9.009-1.8L27.647,5.952,34.581,10h-7.1A4.109,4.109,0,0,0,24.81,9H20v2h4.81A2.207,2.207,0,0,1,27,13.19a2.1,2.1,0,0,1-.419,1.265,1.973,1.973,0,0,1-.542.551ZM23,29V20H55v9a1,1,0,0,1-1,1H24A1,1,0,0,1,23,29Z"/><path d="M47,28a2.976,2.976,0,0,0,1.5-.408,3,3,0,1,0,0-5.184A3,3,0,1,0,47,28Zm0-4a.988.988,0,0,1,.747.348,1.035,1.035,0,0,0,1.506,0A.988.988,0,0,1,50,24a1,1,0,0,1,0,2,.988.988,0,0,1-.747-.348,1,1,0,0,0-1.506,0A.988.988,0,0,1,47,26a1,1,0,0,1,0-2Z"/><rect x="25" y="22" width="4" height="2"/><rect x="25" y="26" width="7" height="2"/><path d="M34,50h2a3,3,0,0,0-3-3V46H31v1a3,3,0,0,0,0,6v2a1,1,0,0,1-1-1H28a3,3,0,0,0,3,3v1h2V57a3,3,0,0,0,0-6V49A1,1,0,0,1,34,50Zm0,4a1,1,0,0,1-1,1V53A1,1,0,0,1,34,54Zm-3-3a1,1,0,0,1,0-2Z"/><path d="M61,34H57a1,1,0,0,0-1,1v.78l-8.8-1.76a.986.986,0,0,0-.375,0l-11,2a.973.973,0,0,0-.325.12l-9.25,5.4a.894.894,0,0,0-.125.086A2.993,2.993,0,0,0,25,43.96v.925a9.99,9.99,0,1,0,16.828,5.272l2.9.807A1.049,1.049,0,0,0,45,51h6a1,1,0,0,0,.447-.1L56,48.618V51a1,1,0,0,0,1,1h4a1,1,0,0,0,1-1V35A1,1,0,0,0,61,34ZM40,52a8.014,8.014,0,1,1-4.944-7.363,3.981,3.981,0,0,0,1.979,4.15,1.043,1.043,0,0,0,.247.107l2.318.644A7.8,7.8,0,0,1,40,52Zm10.764-3H45.137l-7.176-1.994A2.192,2.192,0,0,1,39.192,43H44V41H39.192a4.183,4.183,0,0,0-3.405,1.765A9.812,9.812,0,0,0,32,42a9.967,9.967,0,0,0-4.119.9l8.472-4.947,10.638-1.934L56,37.82v8.562ZM60,50H58V36h2Z"/></g></svg>
